<?xml version="1.0" encoding="UTF-8" standalone="no"?>
<!-- Created with Inkscape (http://www.inkscape.org/) -->

<svg
   xmlns:dc="http://purl.org/dc/elements/1.1/"
   xmlns:cc="http://creativecommons.org/ns#"
   xmlns:rdf="http://www.w3.org/1999/02/22-rdf-syntax-ns#"
   xmlns:svg="http://www.w3.org/2000/svg"
   xmlns="http://www.w3.org/2000/svg"
   xmlns:xlink="http://www.w3.org/1999/xlink"
   xmlns:sodipodi="http://sodipodi.sourceforge.net/DTD/sodipodi-0.dtd"
   xmlns:inkscape="http://www.inkscape.org/namespaces/inkscape"
   width="200"
   height="200"
   viewBox="0 0 52.916665 52.916668"
   version="1.1"
   id="svg8"
   inkscape:version="0.92.1 r15371"
   sodipodi:docname="github.svg">
  <defs
     id="defs2">
    <linearGradient
       inkscape:collect="always"
       id="linearGradient4627">
      <stop
         style="stop-color:#71605a;stop-opacity:1;"
         offset="0"
         id="stop4623" />
      <stop
         style="stop-color:#bdf167;stop-opacity:0"
         offset="1"
         id="stop4625" />
    </linearGradient>
    <linearGradient
       inkscape:collect="always"
       xlink:href="#linearGradient4627"
       id="linearGradient4629"
       x1="3.3875171"
       y1="269.44979"
       x2="60.112514"
       y2="254.05969"
       gradientUnits="userSpaceOnUse" />
  </defs>
  <sodipodi:namedview
     id="base"
     pagecolor="#ffffff"
     bordercolor="#666666"
     borderopacity="1.0"
     inkscape:pageopacity="0.0"
     inkscape:pageshadow="2"
     inkscape:zoom="2.51"
     inkscape:cx="119.88854"
     inkscape:cy="100.64521"
     inkscape:document-units="px"
     inkscape:current-layer="layer1"
     showgrid="false"
     units="px"
     inkscape:window-width="1366"
     inkscape:window-height="745"
     inkscape:window-x="-8"
     inkscape:window-y="-8"
     inkscape:window-maximized="1" />
  <metadata
     id="metadata5">
    <rdf:RDF>
      <cc:Work
         rdf:about="">
        <dc:format>image/svg+xml</dc:format>
        <dc:type
           rdf:resource="http://purl.org/dc/dcmitype/StillImage" />
        <dc:title></dc:title>
      </cc:Work>
    </rdf:RDF>
  </metadata>
  <g
     inkscape:label="Layer 1"
     inkscape:groupmode="layer"
     id="layer1"
     transform="translate(0,-244.08332)">
    <g
       transform="translate(0.69331157,0.28767005)"
       id="layer1-9"
       inkscape:label="Layer 1"
       style="fill:#ba55d3">
      <path
         sodipodi:nodetypes="cccccc"
         inkscape:connector-curvature="0"
         id="path4555"
         d="M 24.353485,295.78625 H 51.782767 V 245.05422 L 0.0797841,244.93285 -0.04158441,295.66488 Z"
         style="fill:#483d8b;fill-opacity:1;fill-rule:evenodd;stroke:#000000;stroke-width:0.26458335px;stroke-linecap:butt;stroke-linejoin:miter;stroke-opacity:1" />
      <path
         style="fill:url(#linearGradient4629);fill-opacity:1;fill-rule:evenodd;stroke:#6b8e23;stroke-width:0.26458335px;stroke-linecap:butt;stroke-linejoin:miter;stroke-opacity:1"
         d="m 23.181873,275.15359 c -5.056589,3.8945 -2.467731,10.82157 -3.641052,16.21551 l -16.0206444,0.16923 0.121369,-44.17813 45.2704514,0.12137 v 44.05676 l -16.336877,-0.0479 c -0.886731,-5.48074 0.679988,-13.20121 -3.082084,-16.09414"
         id="path4557"
         inkscape:connector-curvature="0"
         sodipodi:nodetypes="cccccccc" />
      <path
         sodipodi:nodetypes="ccccccccccc"
         inkscape:connector-curvature="0"
         id="path4561"
         d="m 29.493036,275.39632 c 4.71633,0.49828 9.052887,-0.38826 12.622324,-3.03421 5.567879,-6.89688 2.381631,-13.58063 -0.606841,-16.99159 0.764372,-3.14003 -0.373541,-4.75468 -0.606848,-5.70432 -2.510388,0.47687 -3.296213,1.35237 -5.461578,3.15558 -5.911421,-1.90157 -12.680695,-1.63009 -17.841169,-0.3641 -1.883094,-1.11465 -2.760084,-2.37226 -5.947057,-2.79148 -0.479998,2.80876 -0.362414,3.99312 0.121369,5.34022 -5.530891,5.05702 -5.679612,12.1773 -1.213687,17.23432 3.384247,2.07315 8.363836,3.73562 12.622324,2.91285 h 0.121368"
         style="fill:#483d8b;fill-opacity:1;fill-rule:evenodd;stroke:#556b2f;stroke-width:0.26458335px;stroke-linecap:butt;stroke-linejoin:miter;stroke-opacity:1" />
      <path
         id="path4563"
         style="fill:#483d8b;fill-opacity:1;fill-rule:evenodd;stroke:#6b8e23;stroke-width:0.26364723px;stroke-linecap:butt;stroke-linejoin:miter;stroke-opacity:1"
         d="m 20.031434,282.07161 c -9.143771,3.98788 -9.959268,-10.24347 -16.2690109,-8.8599 v 0 0 c 8.9317639,-2.69244 6.6637079,11.6002 16.9920779,5.21884 v 0"
         inkscape:connector-curvature="0" />
    </g>
  </g>
</svg>
