<?xml version="1.0" encoding="UTF-8" standalone="no"?>
<!-- Created with Inkscape (http://www.inkscape.org/) -->

<svg
   xmlns:dc="http://purl.org/dc/elements/1.1/"
   xmlns:cc="http://creativecommons.org/ns#"
   xmlns:rdf="http://www.w3.org/1999/02/22-rdf-syntax-ns#"
   xmlns:svg="http://www.w3.org/2000/svg"
   xmlns="http://www.w3.org/2000/svg"
   xmlns:sodipodi="http://sodipodi.sourceforge.net/DTD/sodipodi-0.dtd"
   xmlns:inkscape="http://www.inkscape.org/namespaces/inkscape"
   width="200"
   height="200"
   viewBox="0 0 52.916665 52.916668"
   version="1.1"
   id="svg6270"
   inkscape:version="0.92.1 r15371"
   sodipodi:docname="twitter.svg">
  <defs
     id="defs6264" />
  <sodipodi:namedview
     id="base"
     pagecolor="#ffffff"
     bordercolor="#666666"
     borderopacity="1.0"
     inkscape:pageopacity="0.0"
     inkscape:pageshadow="2"
     inkscape:zoom="2.6124924"
     inkscape:cx="92.351858"
     inkscape:cy="100"
     inkscape:document-units="px"
     inkscape:current-layer="layer1"
     showgrid="false"
     units="px"
     inkscape:object-nodes="false"
     inkscape:snap-smooth-nodes="false"
     inkscape:window-width="1366"
     inkscape:window-height="745"
     inkscape:window-x="-8"
     inkscape:window-y="-8"
     inkscape:window-maximized="1" />
  <metadata
     id="metadata6267">
    <rdf:RDF>
      <cc:Work
         rdf:about="">
        <dc:format>image/svg+xml</dc:format>
        <dc:type
           rdf:resource="http://purl.org/dc/dcmitype/StillImage" />
        <dc:title></dc:title>
      </cc:Work>
    </rdf:RDF>
  </metadata>
  <g
     inkscape:label="Layer 1"
     inkscape:groupmode="layer"
     id="layer1"
     transform="translate(0,-244.08332)">
    <rect
       style="fill:#40e0d0;fill-rule:evenodd;stroke:#000000;stroke-width:0.19102917;stroke-linecap:butt;stroke-linejoin:miter;stroke-opacity:1;fill-opacity:1;stroke-miterlimit:4;stroke-dasharray:none"
       id="rect6815"
       width="52.058918"
       height="51.867096"
       x="0.46108893"
       y="244.68542"
       ry="3.2002399" />
    <path
       style="fill:#fffff0;fill-rule:evenodd;stroke:#40e0d0;stroke-width:0.3903482;stroke-linecap:butt;stroke-linejoin:miter;stroke-miterlimit:4;stroke-dasharray:none;stroke-opacity:1"
       d="m 30.807387,264.23099 c -0.491064,-10.79267 10.145887,-8.99638 11.465708,-5.54346 1.336529,-0.62692 2.597939,-0.86581 4.1159,-2.43002 v 0 c -0.677046,1.97804 -1.719956,2.72218 -2.939929,3.94883 l 3.674911,-1.44282 c -0.459252,0.55333 -1.45399,1.50599 -2.939927,2.96158 -0.316304,20.99007 -21.035072,29.65161 -35.8670938,20.57913 7.7983848,1.18853 10.9277888,-0.75117 13.2296628,-3.26535 -4.448415,0.57728 -8.746008,-2.54761 -9.407759,-5.92315 1.185193,0.05 1.624198,0.48574 3.380915,0.15194 -0.81684,0.25529 1.824225,0.30673 0.293992,6e-5 -1.331571,-0.27003 -6.0738507,-4.15162 -5.585863,-8.35319 -0.124584,-0.23292 2.010662,1.42299 3.380916,1.06314 -4.4200663,-2.88092 -4.9686379,-7.97048 -3.527912,-10.47942 11.991774,11.83042 20.813631,8.54146 20.726479,8.73285 z"
       id="path6845"
       inkscape:connector-curvature="0"
       sodipodi:nodetypes="ccccccccccccccccc" />
  </g>
</svg>
